<?xml version="1.0" standalone="no"?>
<!DOCTYPE svg PUBLIC "-//W3C//DTD SVG 20010904//EN"
 "http://www.w3.org/TR/2001/REC-SVG-20010904/DTD/svg10.dtd">
<svg version="1.0" xmlns="http://www.w3.org/2000/svg"
 width="1280.000000pt" height="903.000000pt" viewBox="0 0 1280.000000 903.000000"
 preserveAspectRatio="xMidYMid meet">
<g transform="translate(0.000000,903.000000) scale(0.100000,-0.100000)"
fill="#000000" stroke="none">
<path d="M6170 7826 c-207 -32 -378 -84 -544 -168 -402 -201 -638 -518 -672
-900 -3 -43 -10 -78 -15 -78 -4 0 -27 23 -51 50 -51 60 -168 160 -256 219
-154 104 -373 192 -591 238 -116 25 -145 27 -361 28 -252 0 -307 -6 -495 -55
-278 -73 -508 -201 -690 -384 -140 -141 -230 -292 -277 -464 -31 -112 -31
-334 0 -447 41 -149 133 -312 241 -428 27 -29 41 -51 35 -57 -5 -5 -54 -25
-109 -45 -151 -56 -426 -194 -555 -280 -455 -303 -738 -686 -820 -1110 -25
-132 -27 -357 -4 -490 118 -686 802 -1286 1729 -1519 294 -73 490 -97 862
-103 685 -12 1022 48 1402 248 l113 60 123 -30 c188 -48 524 -153 1193 -377
337 -112 616 -204 620 -204 4 0 -96 51 -223 113 -228 112 -381 197 -519 285
-275 177 -492 388 -547 532 -30 78 -26 104 24 157 l43 45 95 -13 c120 -18 586
-17 722 0 207 26 378 82 541 177 72 42 84 46 125 40 78 -10 878 -289 903 -314
21 -21 -223 -188 -455 -312 -64 -35 -115 -65 -114 -67 2 -2 145 49 318 113
416 154 474 174 497 174 11 0 51 -11 88 -25 67 -24 68 -18 5 17 -17 9 -31 21
-31 27 0 18 374 141 431 141 16 0 48 -12 71 -26 132 -84 309 -151 473 -179
135 -23 421 -38 595 -31 577 24 1074 225 1415 571 255 259 385 558 385 883 0
333 -121 617 -374 880 -313 324 -757 525 -1273 575 -73 7 -135 15 -137 18 -3
2 8 43 24 91 179 533 -164 1088 -815 1318 -396 139 -884 134 -1265 -15 -141
-55 -134 -57 -142 54 -22 283 -160 533 -401 726 -196 158 -425 263 -701 321
-103 22 -153 26 -336 29 -145 3 -243 0 -300 -9z m-960 -1758 c45 -57 46 -76 9
-149 -21 -43 -104 -136 -113 -128 -4 3 0 33 9 65 8 32 20 99 26 149 10 92 15
115 23 115 2 0 23 -23 46 -52z m473 -352 c133 -75 251 -107 522 -142 l60 -8
-50 -7 c-27 -4 -78 -8 -112 -8 -73 -1 -268 -26 -371 -47 -187 -39 -393 -112
-560 -199 l-104 -54 -96 40 c-97 40 -122 58 -122 90 0 9 28 53 63 98 53 69 70
83 117 101 124 49 527 180 551 180 14 0 60 -20 102 -44z m1531 12 c2 -7 9 -61
15 -121 6 -68 22 -141 41 -198 28 -83 36 -119 26 -119 -2 0 -55 24 -117 54
-189 90 -397 152 -609 182 -63 9 -153 22 -200 29 l-85 12 75 2 c309 6 546 49
755 135 94 40 95 40 99 24z m809 -1068 c78 -35 211 -75 285 -85 29 -4 56 -13
58 -20 3 -7 -16 -47 -41 -89 -113 -185 -165 -358 -172 -573 -7 -171 6 -272 52
-410 55 -165 127 -292 250 -444 36 -44 65 -88 65 -99 0 -65 -91 -212 -185
-299 l-46 -42 -39 23 c-211 124 -430 327 -499 461 -48 92 -44 120 31 208 320
383 394 849 202 1284 -59 133 -61 130 39 85z"/>
</g>
</svg>
